<mxfile host="Electron" agent="Mozilla/5.0 (Windows NT 10.0; Win64; x64) AppleWebKit/537.36 (KHTML, like Gecko) draw.io/26.2.2 Chrome/134.0.6998.178 Electron/35.1.2 Safari/537.36" version="26.2.2">
  <diagram name="Pagina-1" id="4lVuUVqa13CdACWYKMya">
    <mxGraphModel dx="680" dy="400" grid="0" gridSize="10" guides="1" tooltips="1" connect="1" arrows="1" fold="1" page="1" pageScale="1" pageWidth="827" pageHeight="1169" math="1" shadow="0">
      <root>
        <mxCell id="0" />
        <mxCell id="1" parent="0" />
        <mxCell id="O5mvGvZjk8QFreS1E5gy-22" value="" style="group" parent="1" vertex="1" connectable="0">
          <mxGeometry x="260" y="134" width="185" height="204" as="geometry" />
        </mxCell>
        <mxCell id="O5mvGvZjk8QFreS1E5gy-24" value="$$O$$" style="text;html=1;align=center;verticalAlign=middle;resizable=0;points=[];autosize=1;strokeColor=none;fillColor=none;fontFamily=Times New Roman;fontColor=#000000;" parent="O5mvGvZjk8QFreS1E5gy-22" vertex="1">
          <mxGeometry x="-17" y="178" width="51" height="26" as="geometry" />
        </mxCell>
        <mxCell id="O5mvGvZjk8QFreS1E5gy-1" value="" style="endArrow=classic;html=1;rounded=0;entryX=0;entryY=1;entryDx=0;entryDy=0;" parent="O5mvGvZjk8QFreS1E5gy-22" target="O5mvGvZjk8QFreS1E5gy-7" edge="1">
          <mxGeometry width="50" height="50" relative="1" as="geometry">
            <mxPoint x="20" y="200" as="sourcePoint" />
            <mxPoint x="90" y="40" as="targetPoint" />
          </mxGeometry>
        </mxCell>
        <mxCell id="O5mvGvZjk8QFreS1E5gy-2" value="" style="endArrow=classic;html=1;rounded=0;" parent="O5mvGvZjk8QFreS1E5gy-22" edge="1">
          <mxGeometry width="50" height="50" relative="1" as="geometry">
            <mxPoint x="20" y="200" as="sourcePoint" />
            <mxPoint x="140" y="20" as="targetPoint" />
          </mxGeometry>
        </mxCell>
        <mxCell id="O5mvGvZjk8QFreS1E5gy-3" value="" style="endArrow=classic;html=1;rounded=0;fillColor=#d5e8d4;strokeColor=#009900;exitX=1;exitY=0.5;exitDx=0;exitDy=0;" parent="O5mvGvZjk8QFreS1E5gy-22" source="O5mvGvZjk8QFreS1E5gy-7" edge="1">
          <mxGeometry width="50" height="50" relative="1" as="geometry">
            <mxPoint x="90" y="30" as="sourcePoint" />
            <mxPoint x="140" y="20" as="targetPoint" />
          </mxGeometry>
        </mxCell>
        <mxCell id="O5mvGvZjk8QFreS1E5gy-5" value="&lt;b&gt;\(\mathbf{r}_i(q_j)\)&lt;/b&gt;" style="text;html=1;align=center;verticalAlign=middle;resizable=0;points=[];autosize=1;strokeColor=none;fillColor=none;fontFamily=Times New Roman;fontColor=#000000;" parent="O5mvGvZjk8QFreS1E5gy-22" vertex="1">
          <mxGeometry x="-36" y="122" width="122" height="26" as="geometry" />
        </mxCell>
        <mxCell id="O5mvGvZjk8QFreS1E5gy-7" value="" style="ellipse;whiteSpace=wrap;html=1;aspect=fixed;fillColor=#3399FF;strokeColor=none;" parent="O5mvGvZjk8QFreS1E5gy-22" vertex="1">
          <mxGeometry x="80" y="20" width="6" height="6" as="geometry" />
        </mxCell>
        <mxCell id="O5mvGvZjk8QFreS1E5gy-12" value="" style="endArrow=classic;html=1;rounded=0;fillColor=#d5e8d4;strokeColor=#009900;exitX=1;exitY=0.5;exitDx=0;exitDy=0;" parent="O5mvGvZjk8QFreS1E5gy-22" source="O5mvGvZjk8QFreS1E5gy-13" edge="1">
          <mxGeometry width="50" height="50" relative="1" as="geometry">
            <mxPoint x="110" y="60" as="sourcePoint" />
            <mxPoint x="160" y="50" as="targetPoint" />
          </mxGeometry>
        </mxCell>
        <mxCell id="O5mvGvZjk8QFreS1E5gy-13" value="" style="ellipse;whiteSpace=wrap;html=1;aspect=fixed;fillColor=#3399FF;strokeColor=none;" parent="O5mvGvZjk8QFreS1E5gy-22" vertex="1">
          <mxGeometry x="102" y="51" width="6" height="6" as="geometry" />
        </mxCell>
        <mxCell id="O5mvGvZjk8QFreS1E5gy-14" value="" style="endArrow=classic;html=1;rounded=0;fillColor=#d5e8d4;strokeColor=#009900;exitX=1;exitY=0.5;exitDx=0;exitDy=0;" parent="O5mvGvZjk8QFreS1E5gy-22" source="O5mvGvZjk8QFreS1E5gy-15" edge="1">
          <mxGeometry width="50" height="50" relative="1" as="geometry">
            <mxPoint x="60" y="50" as="sourcePoint" />
            <mxPoint x="110" y="40" as="targetPoint" />
          </mxGeometry>
        </mxCell>
        <mxCell id="O5mvGvZjk8QFreS1E5gy-15" value="" style="ellipse;whiteSpace=wrap;html=1;aspect=fixed;fillColor=#3399FF;strokeColor=none;" parent="O5mvGvZjk8QFreS1E5gy-22" vertex="1">
          <mxGeometry x="50" y="40" width="6" height="6" as="geometry" />
        </mxCell>
        <mxCell id="O5mvGvZjk8QFreS1E5gy-16" value="" style="endArrow=classic;html=1;rounded=0;fillColor=#d5e8d4;strokeColor=#009900;exitX=1;exitY=0.5;exitDx=0;exitDy=0;" parent="O5mvGvZjk8QFreS1E5gy-22" source="O5mvGvZjk8QFreS1E5gy-17" edge="1">
          <mxGeometry width="50" height="50" relative="1" as="geometry">
            <mxPoint x="35" y="10" as="sourcePoint" />
            <mxPoint x="85" as="targetPoint" />
          </mxGeometry>
        </mxCell>
        <mxCell id="O5mvGvZjk8QFreS1E5gy-17" value="" style="ellipse;whiteSpace=wrap;html=1;aspect=fixed;fillColor=#3399FF;strokeColor=none;" parent="O5mvGvZjk8QFreS1E5gy-22" vertex="1">
          <mxGeometry x="25" width="6" height="6" as="geometry" />
        </mxCell>
        <mxCell id="O5mvGvZjk8QFreS1E5gy-18" value="" style="endArrow=classic;html=1;rounded=0;fillColor=#d5e8d4;strokeColor=#009900;exitX=1;exitY=0.5;exitDx=0;exitDy=0;" parent="O5mvGvZjk8QFreS1E5gy-22" source="O5mvGvZjk8QFreS1E5gy-19" edge="1">
          <mxGeometry width="50" height="50" relative="1" as="geometry">
            <mxPoint x="135" y="10" as="sourcePoint" />
            <mxPoint x="185" as="targetPoint" />
          </mxGeometry>
        </mxCell>
        <mxCell id="O5mvGvZjk8QFreS1E5gy-19" value="" style="ellipse;whiteSpace=wrap;html=1;aspect=fixed;fillColor=#3399FF;strokeColor=none;" parent="O5mvGvZjk8QFreS1E5gy-22" vertex="1">
          <mxGeometry x="125" width="6" height="6" as="geometry" />
        </mxCell>
        <mxCell id="O5mvGvZjk8QFreS1E5gy-20" value="" style="endArrow=classic;html=1;rounded=0;fillColor=#f8cecc;strokeColor=#FF3333;exitX=1;exitY=0.5;exitDx=0;exitDy=0;sourcePerimeterSpacing=0;targetPerimeterSpacing=0;strokeWidth=1;startArrow=none;startFill=0;" parent="O5mvGvZjk8QFreS1E5gy-22" edge="1">
          <mxGeometry width="50" height="50" relative="1" as="geometry">
            <mxPoint x="108" y="54" as="sourcePoint" />
            <mxPoint x="128" y="52.5" as="targetPoint" />
          </mxGeometry>
        </mxCell>
        <mxCell id="O5mvGvZjk8QFreS1E5gy-21" value="&lt;font face=&quot;Times New Roman&quot;&gt;&lt;b&gt;$$\hat{u}$$&lt;/b&gt;&lt;/font&gt;" style="text;html=1;align=center;verticalAlign=middle;resizable=0;points=[];autosize=1;strokeColor=none;fillColor=none;fontColor=#FF3333;" parent="O5mvGvZjk8QFreS1E5gy-22" vertex="1">
          <mxGeometry x="80" y="55" width="78" height="26" as="geometry" />
        </mxCell>
        <mxCell id="O5mvGvZjk8QFreS1E5gy-23" value="" style="ellipse;whiteSpace=wrap;html=1;aspect=fixed;fillColor=#3399FF;strokeColor=none;" parent="O5mvGvZjk8QFreS1E5gy-22" vertex="1">
          <mxGeometry x="17" y="196" width="6" height="6" as="geometry" />
        </mxCell>
        <mxCell id="nr8G5xuwAWVfve0BDd1m-2" value="&lt;b&gt;\(\mathbf{r}_i(q_j + \delta q_j)\)&lt;/b&gt;" style="text;html=1;align=center;verticalAlign=middle;resizable=0;points=[];autosize=1;strokeColor=none;fillColor=none;fontFamily=Times New Roman;fontColor=#000000;" parent="O5mvGvZjk8QFreS1E5gy-22" vertex="1">
          <mxGeometry x="-1" y="136" width="183" height="26" as="geometry" />
        </mxCell>
      </root>
    </mxGraphModel>
  </diagram>
</mxfile>
